<?xml version="1.0" encoding="utf-8"?>
<!-- Generator: Adobe Illustrator 26.0.1, SVG Export Plug-In . SVG Version: 6.00 Build 0)  -->
<svg version="1.1" id="Layer_1" xmlns="http://www.w3.org/2000/svg" xmlns:xlink="http://www.w3.org/1999/xlink" x="0px" y="0px"
	 viewBox="0 0 70 70" style="enable-background:new 0 0 70 70;" xml:space="preserve">
<style type="text/css">
	.st0{fill:#11ED00;}
</style>
<g>
	<path class="st0" d="M36.52,53.14c-0.52,0.03-1.03-0.01-1.55,0.02c-0.55,0.03-1.02-0.16-1.44-0.49c-0.31-0.24-0.64-0.49-0.87-0.81
		c-0.51-0.71-1.03-1.43-1.44-2.2c-1-1.89-1.57-3.93-2.03-6c-0.08-0.38-0.04-0.42,0.34-0.45c0.15-0.01,0.31-0.01,0.47-0.01
		c1.52,0,3.03,0,4.55,0c0.22,0,0.45,0,0.67-0.03c0.79-0.1,1.4-0.81,1.38-1.61c-0.02-0.8-0.66-1.49-1.45-1.56
		c-0.22-0.02-0.45-0.01-0.67-0.01c-1.78,0-3.55,0-5.33,0c-0.52,0-0.58-0.05-0.61-0.48c-0.08-1.12-0.17-2.23-0.21-3.35
		c-0.06-1.9,0.02-3.79,0.2-5.68c0.04-0.46,0.08-0.5,0.59-0.5c3.9,0,7.79,0,11.69,0c0.53,0,0.57,0.05,0.6,0.6
		c0.07,0.96,0.14,1.92,0.2,2.89c0.02,0.38,0.16,0.7,0.42,0.98c0.45,0.48,1.19,0.63,1.81,0.38c0.65-0.27,1.04-0.91,0.99-1.66
		c-0.04-0.74-0.11-1.48-0.15-2.22c-0.02-0.29,0-0.58,0-0.92c0.17-0.02,0.34-0.04,0.5-0.04c2.22,0,4.45,0,6.67,0
		c0.55,0,0.56,0.01,0.7,0.55c0.47,1.81,0.69,3.65,0.62,5.52c-0.01,0.22-0.03,0.45-0.02,0.67c0.05,0.88,0.71,1.51,1.58,1.52
		c0.87,0.01,1.53-0.6,1.62-1.48c0.18-1.72,0.14-3.45-0.14-5.15c-0.85-5.28-3.26-9.72-7.39-13.12c-5.69-4.68-12.2-6.02-19.31-4.26
		c-4.82,1.19-8.71,3.89-11.71,7.85c-2.78,3.67-4.18,7.84-4.33,12.43c-0.04,1.38,0.07,2.75,0.29,4.12c0.61,3.8,2.15,7.18,4.68,10.09
		c3.39,3.9,7.64,6.37,12.69,7.46c1.83,0.39,3.69,0.47,5.55,0.23c0.92-0.12,1.59-0.85,1.55-1.71C38.21,53.7,37.32,53.09,36.52,53.14z
		 M41.41,18c4.24,1.71,7.45,4.57,9.69,8.7c-0.31,0.02-0.51,0.04-0.71,0.04c-1.86,0-3.72,0-5.58,0c-0.64,0-0.63,0-0.76-0.62
		c-0.57-2.68-1.33-5.3-2.63-7.74c-0.05-0.09-0.08-0.19-0.11-0.28C41.33,18.07,41.37,18.04,41.41,18z M29.21,26.27
		c0.11-0.52,0.24-1.04,0.37-1.55c0.45-1.68,1-3.33,1.87-4.85c0.38-0.67,0.85-1.29,1.32-1.9c0.23-0.29,0.54-0.53,0.84-0.75
		c0.83-0.61,1.92-0.63,2.74,0.01c0.44,0.35,0.86,0.75,1.21,1.19c1.09,1.37,1.77,2.95,2.3,4.59c0.34,1.05,0.6,2.12,0.87,3.18
		c0.13,0.51,0.09,0.56-0.46,0.56c-1.76,0-3.51,0-5.27,0c-1.67,0-3.34,0-5.01,0c-0.14,0-0.28,0-0.41,0
		C29.18,26.72,29.12,26.66,29.21,26.27z M28.8,17.91c-0.06,0.14-0.09,0.22-0.14,0.29c-1.38,2.46-2.18,5.12-2.74,7.87
		c-0.02,0.12-0.06,0.23-0.07,0.35c-0.03,0.23-0.17,0.32-0.39,0.32c-0.38,0-0.76,0-1.14,0c-1.64,0-3.28,0-4.91,0
		c-0.18,0-0.37-0.02-0.56-0.03C19.35,23.97,25.75,18.31,28.8,17.91z M18.15,39.99c-0.63,0-0.63-0.01-0.79-0.63
		c-0.43-1.64-0.66-3.31-0.61-5.01c0.04-1.31,0.23-2.61,0.55-3.88c0.12-0.48,0.15-0.5,0.68-0.5c1.12-0.01,2.24,0,3.36,0
		c1.14,0,2.28,0,3.41,0c0.53,0,0.55,0.03,0.52,0.56c-0.06,1.45-0.18,2.89-0.19,4.34c0,1.45,0.11,2.89,0.18,4.34
		c0.04,0.78,0.05,0.78-0.72,0.78C22.43,39.99,20.29,39.99,18.15,39.99z M24.06,49.38c-2.15-1.64-3.86-3.65-5.17-6.11
		c0.26-0.03,0.42-0.06,0.59-0.06c1.93,0,3.86-0.01,5.79,0c0.51,0,0.53,0.02,0.63,0.54c0.53,2.72,1.32,5.35,2.65,7.79
		c0.05,0.09,0.08,0.19,0.16,0.4C26.95,51.32,25.46,50.44,24.06,49.38z"/>
	<path class="st0" d="M55.63,43.53c-0.22-0.12-0.47-0.22-0.71-0.31c-4.22-1.69-8.44-3.38-12.66-5.07c-1.1-0.44-2.21-0.87-3.31-1.32
		c-1.01-0.41-2.06,0.22-2.24,1.24c-0.07,0.41,0.07,0.78,0.22,1.15c1.69,4.24,3.39,8.47,5.08,12.71c0.46,1.15,0.92,2.3,1.38,3.45
		c0.28,0.7,0.8,1.06,1.54,1.12c0.1-0.01,0.2-0.02,0.3-0.04c0.58-0.13,0.96-0.49,1.22-1.02c0.91-1.84,1.84-3.66,2.74-5.5
		c0.16-0.33,0.37-0.55,0.7-0.71c1.72-0.84,3.42-1.7,5.13-2.56c0.25-0.12,0.5-0.24,0.73-0.39C56.77,45.58,56.7,44.13,55.63,43.53z"/>
</g>
</svg>
