<?xml version="1.0" encoding="utf-8"?>
<!-- Generator: Adobe Illustrator 26.0.1, SVG Export Plug-In . SVG Version: 6.00 Build 0)  -->
<svg version="1.1" id="Layer_1" xmlns="http://www.w3.org/2000/svg" xmlns:xlink="http://www.w3.org/1999/xlink" x="0px" y="0px"
	 viewBox="0 0 70 70" style="enable-background:new 0 0 70 70;" xml:space="preserve">
<style type="text/css">
	.st0{fill:#11ED00;}
</style>
<g>
	<path class="st0" d="M38.9,39.64c-2.61,1.74-5.19,1.73-7.79,0c-5.81-3.87-11.61-7.74-17.42-11.62c-0.03-0.02-0.07-0.04-0.15-0.08
		c-0.01,0.12-0.03,0.22-0.03,0.32c0,6.27-0.01,12.54,0,18.81c0,2.26,1.67,3.95,3.92,4.03c0.14,0,0.28,0,0.42,0
		c11.43,0,22.87,0,34.3,0c2.35,0,3.73-1.08,4.3-3.36c0.01-0.02,0.03-0.05,0.05-0.07c0-6.58,0-13.16,0-19.74
		c-0.68,0.44-1.36,0.87-2.03,1.32C49.28,32.72,44.09,36.19,38.9,39.64z"/>
	<path class="st0" d="M56.29,21.6c-0.57-1.69-2.06-2.71-3.97-2.71c-11.55,0-23.09,0-34.64,0c-0.13,0-0.25,0-0.38,0.01
		c-1.77,0.11-3.19,1.25-3.65,2.91c-0.45,1.62,0.13,3.25,1.54,4.19c5.86,3.92,11.72,7.83,17.6,11.73c1.45,0.96,2.97,0.96,4.42,0
		c5.86-3.89,11.72-7.79,17.55-11.72c0.49-0.33,0.9-0.84,1.24-1.33c0.25-0.36,0.34-0.84,0.5-1.27c0-0.36,0-0.73,0-1.09
		C56.43,22.08,56.37,21.84,56.29,21.6z"/>
</g>
</svg>
