<?xml version="1.0" encoding="utf-8"?>
<!-- Generator: Adobe Illustrator 26.0.1, SVG Export Plug-In . SVG Version: 6.00 Build 0)  -->
<svg version="1.1" id="Layer_1" xmlns="http://www.w3.org/2000/svg" xmlns:xlink="http://www.w3.org/1999/xlink" x="0px" y="0px"
	 viewBox="0 0 70 70" style="enable-background:new 0 0 70 70;" xml:space="preserve">
<style type="text/css">
	.st0{fill:#11ED00;}
</style>
<path class="st0" d="M13.5,24.32c0.12-0.3,0.25-0.71,0.45-1.08c1.21-2.2,2.74-4.16,4.43-5.99c1-1.08,2.1-2.07,3.22-3.03
	c1.53-1.31,3.07-0.5,3.86,0.57c2,2.75,3.87,5.59,5.3,8.69c0.21,0.46,0.36,0.94,0.52,1.43c0.26,0.84,0.11,1.63-0.49,2.25
	c-0.69,0.72-1.44,1.38-2.19,2.04c-1,0.87-1.02,0.86-0.51,2.07c2.24,5.23,6,8.88,11.3,10.95c0.45,0.18,0.73,0.15,1.05-0.26
	c0.64-0.8,1.33-1.57,2.03-2.32c0.88-0.96,1.98-1.26,3.17-0.71c1.53,0.7,3.05,1.43,4.49,2.28c1.72,1.02,3.35,2.18,5,3.29
	c0.68,0.46,1.09,1.12,1.29,1.92c0.12,0.46,0.08,0.9-0.16,1.29c-0.29,0.48-0.58,0.98-0.95,1.4c-2.36,2.71-5.15,4.91-8.17,6.83
	c-1.06,0.67-2.11,0.56-3.22,0.34c-3.87-0.77-7.39-2.41-10.67-4.54c-6.8-4.41-12.27-10.1-16.27-17.17c-1.5-2.65-2.64-5.44-3.21-8.44
	C13.67,25.58,13.6,25.01,13.5,24.32z"/>
</svg>
