<?xml version="1.0" encoding="utf-8"?>
<!-- Generator: Adobe Illustrator 26.0.1, SVG Export Plug-In . SVG Version: 6.00 Build 0)  -->
<svg version="1.1" id="Layer_1" xmlns="http://www.w3.org/2000/svg" xmlns:xlink="http://www.w3.org/1999/xlink" x="0px" y="0px"
	 viewBox="0 0 70 70" style="enable-background:new 0 0 70 70;" xml:space="preserve">
<style type="text/css">
	.st0{fill:#11ED00;}
</style>
<g>
	<path class="st0" d="M32.42,44.94c1.18,1.89,3.91,1.79,5.19-0.06c0.54-0.78,1-1.61,1.48-2.43c2.49-4.27,5-8.54,6.65-13.22
		c0.48-1.35,0.9-2.81,0.9-4.23c0.02-5.2-3.66-9.8-8.7-11.11c-0.54-0.14-1.08-0.25-1.62-0.38c-0.9,0-1.79,0-2.69,0
		c-0.16,0.05-0.31,0.12-0.47,0.15c-6.89,1.01-11.68,8.39-9.19,15.03C26.15,34.45,29.19,39.75,32.42,44.94z M34.99,19.72
		c2.59,0.01,4.68,2.1,4.69,4.68c0,2.58-2.1,4.7-4.67,4.71c-2.61,0.01-4.74-2.12-4.73-4.74C30.3,21.8,32.41,19.71,34.99,19.72z"/>
	<path class="st0" d="M55.16,45.43c-0.62-0.63-1.37-1.15-2.11-1.63c-0.77-0.5-1.51-0.35-1.91,0.28c-0.43,0.67-0.18,1.32,0.65,1.88
		c0.57,0.39,1.16,0.8,1.63,1.29c0.73,0.77,0.73,1.45-0.01,2.21c-0.48,0.49-1.03,0.98-1.65,1.26c-1.42,0.65-2.85,1.3-4.35,1.71
		c-6.32,1.71-12.75,1.87-19.22,1.1c-3.2-0.38-6.35-1.01-9.27-2.43c-0.77-0.37-1.51-0.86-2.16-1.42c-1.01-0.89-0.99-1.72-0.02-2.64
		c0.42-0.4,0.92-0.73,1.41-1.05c0.85-0.56,1.1-1.19,0.71-1.87c-0.41-0.7-1.14-0.79-2.05-0.27c-1.52,0.88-2.71,2.04-3.3,3.73
		c0,0.5,0,1.01,0,1.51c0.62,1.87,1.98,3.05,3.65,3.95c2.54,1.37,5.29,2.09,8.1,2.59c5.4,0.97,10.84,1.08,16.29,0.48
		c3.34-0.37,6.66-0.95,9.73-2.36c1.4-0.64,2.78-1.48,3.9-2.52C56.98,49.54,56.91,47.2,55.16,45.43z"/>
	<path class="st0" d="M22.43,48.88c1.02,0.6,2.16,1.06,3.31,1.36c5.13,1.32,10.34,1.34,15.56,0.62c2.13-0.29,4.25-0.74,6.12-1.88
		c2.37-1.44,2.43-3.82,0-5.11c-1.47-0.79-3.18-1.15-4.79-1.67c-0.16-0.05-0.48,0.1-0.59,0.25c-0.4,0.6-0.74,1.24-1.15,1.93
		c2.02,0.47,4.06,0.68,5.72,2.14c-1.12,0.58-2.22,1.11-3.39,1.39c-4.37,1.05-8.8,1.15-13.24,0.57c-1.81-0.24-3.59-0.78-5.36-1.25
		c-0.47-0.12-0.87-0.49-1.31-0.75c0-0.11,0.01-0.21,0.01-0.32c0.92-0.37,1.82-0.79,2.76-1.09c0.94-0.3,1.93-0.47,2.96-0.71
		c-0.4-0.67-0.72-1.29-1.12-1.86c-0.12-0.17-0.47-0.34-0.64-0.29c-1.64,0.53-3.36,0.92-4.86,1.72
		C20.15,45.16,20.18,47.55,22.43,48.88z"/>
</g>
</svg>
